<mxfile host="app.diagrams.net" modified="2024-01-25T10:51:47.957Z" agent="Mozilla/5.0 (Windows NT 10.0; Win64; x64) AppleWebKit/537.36 (KHTML, like Gecko) Chrome/120.0.0.0 Safari/537.36" etag="qxLis7Lr-Aj0iK92YOY1" version="23.0.1" type="google">
  <diagram id="C5RBs43oDa-KdzZeNtuy" name="Page-1">
    <mxGraphModel grid="0" page="0" gridSize="10" guides="1" tooltips="1" connect="1" arrows="1" fold="1" pageScale="1" pageWidth="827" pageHeight="1169" math="0" shadow="0">
      <root>
        <mxCell id="WIyWlLk6GJQsqaUBKTNV-0" />
        <mxCell id="WIyWlLk6GJQsqaUBKTNV-1" parent="WIyWlLk6GJQsqaUBKTNV-0" />
        <mxCell id="02AQT7MVqX3RJYkTDw0V-3" style="edgeStyle=orthogonalEdgeStyle;rounded=0;orthogonalLoop=1;jettySize=auto;html=1;entryX=0;entryY=0.5;entryDx=0;entryDy=0;endArrow=none;endFill=0;" edge="1" parent="WIyWlLk6GJQsqaUBKTNV-1" source="WIyWlLk6GJQsqaUBKTNV-3">
          <mxGeometry relative="1" as="geometry">
            <mxPoint x="350" y="340" as="targetPoint" />
            <Array as="points">
              <mxPoint x="280" y="290" />
              <mxPoint x="280" y="340" />
            </Array>
          </mxGeometry>
        </mxCell>
        <mxCell id="WIyWlLk6GJQsqaUBKTNV-3" value="CidadÃ£o" style="rounded=0;whiteSpace=wrap;html=1;fontSize=12;glass=0;strokeWidth=1;shadow=0;" vertex="1" parent="WIyWlLk6GJQsqaUBKTNV-1">
          <mxGeometry x="90" y="260" width="140" height="60" as="geometry" />
        </mxCell>
        <mxCell id="02AQT7MVqX3RJYkTDw0V-4" style="edgeStyle=orthogonalEdgeStyle;rounded=0;orthogonalLoop=1;jettySize=auto;html=1;exitX=1;exitY=0.5;exitDx=0;exitDy=0;entryX=0;entryY=0.5;entryDx=0;entryDy=0;endArrow=none;endFill=0;" edge="1" parent="WIyWlLk6GJQsqaUBKTNV-1" target="02AQT7MVqX3RJYkTDw0V-0">
          <mxGeometry relative="1" as="geometry">
            <mxPoint x="440" y="340" as="sourcePoint" />
            <mxPoint x="489.9999999999998" y="339.9999999999999" as="targetPoint" />
            <Array as="points">
              <mxPoint x="500" y="340" />
              <mxPoint x="500" y="310" />
            </Array>
          </mxGeometry>
        </mxCell>
        <mxCell id="02AQT7MVqX3RJYkTDw0V-0" value="Vacina" style="rounded=0;whiteSpace=wrap;html=1;fontSize=12;glass=0;strokeWidth=1;shadow=0;" vertex="1" parent="WIyWlLk6GJQsqaUBKTNV-1">
          <mxGeometry x="550" y="280" width="140" height="60" as="geometry" />
        </mxCell>
        <mxCell id="02AQT7MVqX3RJYkTDw0V-131" style="edgeStyle=orthogonalEdgeStyle;rounded=0;orthogonalLoop=1;jettySize=auto;html=1;entryX=0.5;entryY=1;entryDx=0;entryDy=0;endArrow=none;endFill=0;" edge="1" parent="WIyWlLk6GJQsqaUBKTNV-1" source="02AQT7MVqX3RJYkTDw0V-1" target="02AQT7MVqX3RJYkTDw0V-127">
          <mxGeometry relative="1" as="geometry" />
        </mxCell>
        <mxCell id="02AQT7MVqX3RJYkTDw0V-1" value="Estabelecimento" style="rounded=0;whiteSpace=wrap;html=1;fontSize=12;glass=0;strokeWidth=1;shadow=0;" vertex="1" parent="WIyWlLk6GJQsqaUBKTNV-1">
          <mxGeometry x="175" y="472.5" width="140" height="60" as="geometry" />
        </mxCell>
        <mxCell id="02AQT7MVqX3RJYkTDw0V-16" style="edgeStyle=orthogonalEdgeStyle;rounded=0;orthogonalLoop=1;jettySize=auto;html=1;entryX=0;entryY=0.5;entryDx=0;entryDy=0;endArrow=none;endFill=0;" edge="1" parent="WIyWlLk6GJQsqaUBKTNV-1" source="02AQT7MVqX3RJYkTDw0V-8" target="02AQT7MVqX3RJYkTDw0V-14">
          <mxGeometry relative="1" as="geometry">
            <Array as="points">
              <mxPoint x="95" y="75" />
            </Array>
          </mxGeometry>
        </mxCell>
        <mxCell id="02AQT7MVqX3RJYkTDw0V-29" style="edgeStyle=orthogonalEdgeStyle;rounded=0;orthogonalLoop=1;jettySize=auto;html=1;exitX=0.5;exitY=0;exitDx=0;exitDy=0;entryX=0;entryY=0.5;entryDx=0;entryDy=0;endArrow=none;endFill=0;" edge="1" parent="WIyWlLk6GJQsqaUBKTNV-1" source="02AQT7MVqX3RJYkTDw0V-8" target="02AQT7MVqX3RJYkTDw0V-27">
          <mxGeometry relative="1" as="geometry">
            <Array as="points">
              <mxPoint x="95" y="165" />
            </Array>
          </mxGeometry>
        </mxCell>
        <mxCell id="02AQT7MVqX3RJYkTDw0V-8" value="" style="ellipse;whiteSpace=wrap;html=1;aspect=fixed;fillColor=#0D0D0D;" vertex="1" parent="WIyWlLk6GJQsqaUBKTNV-1">
          <mxGeometry x="90" y="180" width="10" height="10" as="geometry" />
        </mxCell>
        <mxCell id="02AQT7MVqX3RJYkTDw0V-11" style="edgeStyle=orthogonalEdgeStyle;rounded=0;orthogonalLoop=1;jettySize=auto;html=1;entryX=0.036;entryY=-0.022;entryDx=0;entryDy=0;entryPerimeter=0;endArrow=none;endFill=0;" edge="1" parent="WIyWlLk6GJQsqaUBKTNV-1" source="02AQT7MVqX3RJYkTDw0V-8" target="WIyWlLk6GJQsqaUBKTNV-3">
          <mxGeometry relative="1" as="geometry" />
        </mxCell>
        <mxCell id="02AQT7MVqX3RJYkTDw0V-18" style="edgeStyle=orthogonalEdgeStyle;rounded=0;orthogonalLoop=1;jettySize=auto;html=1;entryX=0.5;entryY=0;entryDx=0;entryDy=0;endArrow=none;endFill=0;" edge="1" parent="WIyWlLk6GJQsqaUBKTNV-1" source="02AQT7MVqX3RJYkTDw0V-12" target="02AQT7MVqX3RJYkTDw0V-8">
          <mxGeometry relative="1" as="geometry">
            <Array as="points">
              <mxPoint x="95" y="145" />
            </Array>
          </mxGeometry>
        </mxCell>
        <mxCell id="02AQT7MVqX3RJYkTDw0V-12" value="" style="ellipse;whiteSpace=wrap;html=1;aspect=fixed;" vertex="1" parent="WIyWlLk6GJQsqaUBKTNV-1">
          <mxGeometry x="110" y="140" width="10" height="10" as="geometry" />
        </mxCell>
        <mxCell id="02AQT7MVqX3RJYkTDw0V-17" style="edgeStyle=orthogonalEdgeStyle;rounded=0;orthogonalLoop=1;jettySize=auto;html=1;endArrow=none;endFill=0;entryX=0.5;entryY=0;entryDx=0;entryDy=0;" edge="1" parent="WIyWlLk6GJQsqaUBKTNV-1" source="02AQT7MVqX3RJYkTDw0V-13" target="02AQT7MVqX3RJYkTDw0V-8">
          <mxGeometry relative="1" as="geometry">
            <mxPoint x="90" y="115" as="targetPoint" />
            <Array as="points">
              <mxPoint x="95" y="130" />
            </Array>
          </mxGeometry>
        </mxCell>
        <mxCell id="02AQT7MVqX3RJYkTDw0V-25" style="edgeStyle=orthogonalEdgeStyle;rounded=0;orthogonalLoop=1;jettySize=auto;html=1;entryX=0;entryY=0.5;entryDx=0;entryDy=0;endArrow=none;endFill=0;exitX=0.5;exitY=0;exitDx=0;exitDy=0;" edge="1" parent="WIyWlLk6GJQsqaUBKTNV-1" target="02AQT7MVqX3RJYkTDw0V-23">
          <mxGeometry relative="1" as="geometry">
            <mxPoint x="125" y="120" as="sourcePoint" />
            <Array as="points">
              <mxPoint x="125" y="95" />
            </Array>
          </mxGeometry>
        </mxCell>
        <mxCell id="02AQT7MVqX3RJYkTDw0V-26" style="edgeStyle=orthogonalEdgeStyle;rounded=0;orthogonalLoop=1;jettySize=auto;html=1;exitX=0.126;exitY=0;exitDx=0;exitDy=0;entryX=0;entryY=0.5;entryDx=0;entryDy=0;endArrow=none;endFill=0;exitPerimeter=0;" edge="1" parent="WIyWlLk6GJQsqaUBKTNV-1" source="02AQT7MVqX3RJYkTDw0V-34" target="02AQT7MVqX3RJYkTDw0V-24">
          <mxGeometry relative="1" as="geometry">
            <mxPoint x="130" y="125" as="sourcePoint" />
            <Array as="points">
              <mxPoint x="125" y="115" />
            </Array>
          </mxGeometry>
        </mxCell>
        <mxCell id="02AQT7MVqX3RJYkTDw0V-13" value="" style="ellipse;whiteSpace=wrap;html=1;aspect=fixed;" vertex="1" parent="WIyWlLk6GJQsqaUBKTNV-1">
          <mxGeometry x="120" y="125" width="10" height="10" as="geometry" />
        </mxCell>
        <mxCell id="02AQT7MVqX3RJYkTDw0V-14" value="" style="ellipse;whiteSpace=wrap;html=1;aspect=fixed;" vertex="1" parent="WIyWlLk6GJQsqaUBKTNV-1">
          <mxGeometry x="110" y="70" width="10" height="10" as="geometry" />
        </mxCell>
        <mxCell id="02AQT7MVqX3RJYkTDw0V-21" style="edgeStyle=orthogonalEdgeStyle;rounded=0;orthogonalLoop=1;jettySize=auto;html=1;endArrow=none;endFill=0;" edge="1" parent="WIyWlLk6GJQsqaUBKTNV-1" source="02AQT7MVqX3RJYkTDw0V-19">
          <mxGeometry relative="1" as="geometry">
            <mxPoint x="115" y="70" as="targetPoint" />
            <Array as="points">
              <mxPoint x="115" y="45" />
            </Array>
          </mxGeometry>
        </mxCell>
        <mxCell id="02AQT7MVqX3RJYkTDw0V-19" value="" style="ellipse;whiteSpace=wrap;html=1;aspect=fixed;" vertex="1" parent="WIyWlLk6GJQsqaUBKTNV-1">
          <mxGeometry x="135" y="40" width="10" height="10" as="geometry" />
        </mxCell>
        <mxCell id="02AQT7MVqX3RJYkTDw0V-22" style="edgeStyle=orthogonalEdgeStyle;rounded=0;orthogonalLoop=1;jettySize=auto;html=1;entryX=0.5;entryY=0;entryDx=0;entryDy=0;endArrow=none;endFill=0;" edge="1" parent="WIyWlLk6GJQsqaUBKTNV-1" source="02AQT7MVqX3RJYkTDw0V-20" target="02AQT7MVqX3RJYkTDw0V-14">
          <mxGeometry relative="1" as="geometry">
            <mxPoint x="110.02" y="70" as="targetPoint" />
            <Array as="points">
              <mxPoint x="115" y="15" />
            </Array>
          </mxGeometry>
        </mxCell>
        <mxCell id="02AQT7MVqX3RJYkTDw0V-20" value="" style="ellipse;whiteSpace=wrap;html=1;aspect=fixed;" vertex="1" parent="WIyWlLk6GJQsqaUBKTNV-1">
          <mxGeometry x="135" y="10" width="10" height="10" as="geometry" />
        </mxCell>
        <mxCell id="02AQT7MVqX3RJYkTDw0V-23" value="" style="ellipse;whiteSpace=wrap;html=1;aspect=fixed;" vertex="1" parent="WIyWlLk6GJQsqaUBKTNV-1">
          <mxGeometry x="150" y="90" width="10" height="10" as="geometry" />
        </mxCell>
        <mxCell id="02AQT7MVqX3RJYkTDw0V-24" value="" style="ellipse;whiteSpace=wrap;html=1;aspect=fixed;" vertex="1" parent="WIyWlLk6GJQsqaUBKTNV-1">
          <mxGeometry x="150" y="110" width="10" height="10" as="geometry" />
        </mxCell>
        <mxCell id="02AQT7MVqX3RJYkTDw0V-27" value="" style="ellipse;whiteSpace=wrap;html=1;aspect=fixed;" vertex="1" parent="WIyWlLk6GJQsqaUBKTNV-1">
          <mxGeometry x="110" y="160" width="10" height="10" as="geometry" />
        </mxCell>
        <mxCell id="02AQT7MVqX3RJYkTDw0V-30" value="&lt;font style=&quot;font-size: 8px;&quot;&gt;EndereÃ§o&lt;/font&gt;" style="text;html=1;strokeColor=none;fillColor=none;align=center;verticalAlign=middle;whiteSpace=wrap;rounded=0;" vertex="1" parent="WIyWlLk6GJQsqaUBKTNV-1">
          <mxGeometry x="100" y="180" width="40" height="10" as="geometry" />
        </mxCell>
        <mxCell id="02AQT7MVqX3RJYkTDw0V-31" value="&lt;font style=&quot;font-size: 8px;&quot;&gt;CEP&lt;/font&gt;" style="text;html=1;strokeColor=none;fillColor=none;align=center;verticalAlign=middle;whiteSpace=wrap;rounded=0;" vertex="1" parent="WIyWlLk6GJQsqaUBKTNV-1">
          <mxGeometry x="110" y="160" width="40" height="10" as="geometry" />
        </mxCell>
        <mxCell id="02AQT7MVqX3RJYkTDw0V-32" value="&lt;span style=&quot;font-size: 8px;&quot;&gt;UF&lt;/span&gt;" style="text;html=1;strokeColor=none;fillColor=none;align=center;verticalAlign=middle;whiteSpace=wrap;rounded=0;" vertex="1" parent="WIyWlLk6GJQsqaUBKTNV-1">
          <mxGeometry x="110" y="140" width="40" height="10" as="geometry" />
        </mxCell>
        <mxCell id="02AQT7MVqX3RJYkTDw0V-34" value="&lt;span style=&quot;font-size: 8px;&quot;&gt;PaÃ­s&lt;/span&gt;" style="text;html=1;strokeColor=none;fillColor=none;align=center;verticalAlign=middle;whiteSpace=wrap;rounded=0;" vertex="1" parent="WIyWlLk6GJQsqaUBKTNV-1">
          <mxGeometry x="120" y="125" width="40" height="10" as="geometry" />
        </mxCell>
        <mxCell id="02AQT7MVqX3RJYkTDw0V-35" value="&lt;span style=&quot;font-size: 8px;&quot;&gt;Nome&lt;/span&gt;" style="text;html=1;strokeColor=none;fillColor=none;align=center;verticalAlign=middle;whiteSpace=wrap;rounded=0;" vertex="1" parent="WIyWlLk6GJQsqaUBKTNV-1">
          <mxGeometry x="160" y="110" width="40" height="10" as="geometry" />
        </mxCell>
        <mxCell id="02AQT7MVqX3RJYkTDw0V-36" value="&lt;span style=&quot;font-size: 8px;&quot;&gt;CÃ³digo&lt;/span&gt;" style="text;html=1;strokeColor=none;fillColor=none;align=center;verticalAlign=middle;whiteSpace=wrap;rounded=0;" vertex="1" parent="WIyWlLk6GJQsqaUBKTNV-1">
          <mxGeometry x="160" y="90" width="40" height="10" as="geometry" />
        </mxCell>
        <mxCell id="02AQT7MVqX3RJYkTDw0V-37" value="&lt;span style=&quot;font-size: 8px;&quot;&gt;CÃ³digo IBGE&amp;nbsp;&lt;/span&gt;" style="text;html=1;strokeColor=none;fillColor=none;align=center;verticalAlign=middle;whiteSpace=wrap;rounded=0;" vertex="1" parent="WIyWlLk6GJQsqaUBKTNV-1">
          <mxGeometry x="145" y="10" width="65" height="10" as="geometry" />
        </mxCell>
        <mxCell id="02AQT7MVqX3RJYkTDw0V-38" value="&lt;span style=&quot;font-size: 8px;&quot;&gt;Nome&lt;/span&gt;" style="text;html=1;strokeColor=none;fillColor=none;align=center;verticalAlign=middle;whiteSpace=wrap;rounded=0;" vertex="1" parent="WIyWlLk6GJQsqaUBKTNV-1">
          <mxGeometry x="145" y="40" width="45" height="10" as="geometry" />
        </mxCell>
        <mxCell id="02AQT7MVqX3RJYkTDw0V-39" value="&lt;span style=&quot;font-size: 8px;&quot;&gt;MunicÃ­pio&lt;/span&gt;" style="text;html=1;strokeColor=none;fillColor=none;align=center;verticalAlign=middle;whiteSpace=wrap;rounded=0;" vertex="1" parent="WIyWlLk6GJQsqaUBKTNV-1">
          <mxGeometry x="120" y="70" width="40" height="10" as="geometry" />
        </mxCell>
        <mxCell id="02AQT7MVqX3RJYkTDw0V-40" style="edgeStyle=orthogonalEdgeStyle;rounded=0;orthogonalLoop=1;jettySize=auto;html=1;exitX=0.5;exitY=0;exitDx=0;exitDy=0;entryX=0;entryY=0.5;entryDx=0;entryDy=0;endArrow=none;endFill=0;" edge="1" parent="WIyWlLk6GJQsqaUBKTNV-1" source="02AQT7MVqX3RJYkTDw0V-41" target="02AQT7MVqX3RJYkTDw0V-44">
          <mxGeometry relative="1" as="geometry">
            <Array as="points">
              <mxPoint x="115" y="225" />
            </Array>
          </mxGeometry>
        </mxCell>
        <mxCell id="02AQT7MVqX3RJYkTDw0V-41" value="" style="ellipse;whiteSpace=wrap;html=1;aspect=fixed;fillColor=#0D0D0D;" vertex="1" parent="WIyWlLk6GJQsqaUBKTNV-1">
          <mxGeometry x="110" y="240" width="10" height="10" as="geometry" />
        </mxCell>
        <mxCell id="02AQT7MVqX3RJYkTDw0V-42" style="edgeStyle=orthogonalEdgeStyle;rounded=0;orthogonalLoop=1;jettySize=auto;html=1;entryX=0.5;entryY=0;entryDx=0;entryDy=0;endArrow=none;endFill=0;" edge="1" parent="WIyWlLk6GJQsqaUBKTNV-1" source="02AQT7MVqX3RJYkTDw0V-43" target="02AQT7MVqX3RJYkTDw0V-41">
          <mxGeometry relative="1" as="geometry">
            <Array as="points">
              <mxPoint x="115" y="205" />
            </Array>
          </mxGeometry>
        </mxCell>
        <mxCell id="02AQT7MVqX3RJYkTDw0V-43" value="" style="ellipse;whiteSpace=wrap;html=1;aspect=fixed;" vertex="1" parent="WIyWlLk6GJQsqaUBKTNV-1">
          <mxGeometry x="130" y="200" width="10" height="10" as="geometry" />
        </mxCell>
        <mxCell id="02AQT7MVqX3RJYkTDw0V-44" value="" style="ellipse;whiteSpace=wrap;html=1;aspect=fixed;" vertex="1" parent="WIyWlLk6GJQsqaUBKTNV-1">
          <mxGeometry x="130" y="220" width="10" height="10" as="geometry" />
        </mxCell>
        <mxCell id="02AQT7MVqX3RJYkTDw0V-45" value="&lt;font style=&quot;font-size: 8px;&quot;&gt;RaÃ§a&lt;/font&gt;" style="text;html=1;strokeColor=none;fillColor=none;align=center;verticalAlign=middle;whiteSpace=wrap;rounded=0;" vertex="1" parent="WIyWlLk6GJQsqaUBKTNV-1">
          <mxGeometry x="120" y="240" width="30" height="10" as="geometry" />
        </mxCell>
        <mxCell id="02AQT7MVqX3RJYkTDw0V-46" value="&lt;font style=&quot;font-size: 8px;&quot;&gt;DescriÃ§Ã£o&lt;/font&gt;" style="text;html=1;strokeColor=none;fillColor=none;align=center;verticalAlign=middle;whiteSpace=wrap;rounded=0;" vertex="1" parent="WIyWlLk6GJQsqaUBKTNV-1">
          <mxGeometry x="140" y="220" width="40" height="10" as="geometry" />
        </mxCell>
        <mxCell id="02AQT7MVqX3RJYkTDw0V-47" value="&lt;span style=&quot;font-size: 8px;&quot;&gt;CÃ³digo&lt;/span&gt;" style="text;html=1;strokeColor=none;fillColor=none;align=center;verticalAlign=middle;whiteSpace=wrap;rounded=0;" vertex="1" parent="WIyWlLk6GJQsqaUBKTNV-1">
          <mxGeometry x="135" y="200" width="40" height="10" as="geometry" />
        </mxCell>
        <mxCell id="02AQT7MVqX3RJYkTDw0V-49" style="edgeStyle=orthogonalEdgeStyle;rounded=0;orthogonalLoop=1;jettySize=auto;html=1;entryX=0.179;entryY=-0.016;entryDx=0;entryDy=0;entryPerimeter=0;endArrow=none;endFill=0;" edge="1" parent="WIyWlLk6GJQsqaUBKTNV-1" source="02AQT7MVqX3RJYkTDw0V-41" target="WIyWlLk6GJQsqaUBKTNV-3">
          <mxGeometry relative="1" as="geometry">
            <Array as="points">
              <mxPoint x="115" y="250" />
              <mxPoint x="115" y="250" />
            </Array>
          </mxGeometry>
        </mxCell>
        <mxCell id="02AQT7MVqX3RJYkTDw0V-52" value="" style="edgeStyle=orthogonalEdgeStyle;rounded=0;orthogonalLoop=1;jettySize=auto;html=1;entryX=0.451;entryY=-0.01;entryDx=0;entryDy=0;entryPerimeter=0;endArrow=none;endFill=0;" edge="1" parent="WIyWlLk6GJQsqaUBKTNV-1" source="02AQT7MVqX3RJYkTDw0V-50" target="WIyWlLk6GJQsqaUBKTNV-3">
          <mxGeometry relative="1" as="geometry">
            <Array as="points">
              <mxPoint x="155" y="260" />
              <mxPoint x="153" y="260" />
            </Array>
          </mxGeometry>
        </mxCell>
        <mxCell id="02AQT7MVqX3RJYkTDw0V-50" value="" style="ellipse;whiteSpace=wrap;html=1;aspect=fixed;fillColor=#141414;" vertex="1" parent="WIyWlLk6GJQsqaUBKTNV-1">
          <mxGeometry x="150" y="240" width="10" height="10" as="geometry" />
        </mxCell>
        <mxCell id="02AQT7MVqX3RJYkTDw0V-51" value="&lt;span style=&quot;font-size: 8px;&quot;&gt;Sexo&lt;/span&gt;" style="text;html=1;strokeColor=none;fillColor=none;align=center;verticalAlign=middle;whiteSpace=wrap;rounded=0;" vertex="1" parent="WIyWlLk6GJQsqaUBKTNV-1">
          <mxGeometry x="155" y="240" width="40" height="10" as="geometry" />
        </mxCell>
        <mxCell id="02AQT7MVqX3RJYkTDw0V-56" style="edgeStyle=orthogonalEdgeStyle;rounded=0;orthogonalLoop=1;jettySize=auto;html=1;entryX=0.727;entryY=-0.001;entryDx=0;entryDy=0;entryPerimeter=0;endArrow=none;endFill=0;" edge="1" parent="WIyWlLk6GJQsqaUBKTNV-1" source="02AQT7MVqX3RJYkTDw0V-53" target="WIyWlLk6GJQsqaUBKTNV-3">
          <mxGeometry relative="1" as="geometry">
            <Array as="points">
              <mxPoint x="195" y="260" />
              <mxPoint x="192" y="260" />
            </Array>
          </mxGeometry>
        </mxCell>
        <mxCell id="02AQT7MVqX3RJYkTDw0V-53" value="" style="ellipse;whiteSpace=wrap;html=1;aspect=fixed;fillColor=#0D0D0D;" vertex="1" parent="WIyWlLk6GJQsqaUBKTNV-1">
          <mxGeometry x="190" y="240" width="10" height="10" as="geometry" />
        </mxCell>
        <mxCell id="02AQT7MVqX3RJYkTDw0V-54" value="&lt;span style=&quot;font-size: 8px;&quot;&gt;Data nascimento&lt;/span&gt;" style="text;html=1;strokeColor=none;fillColor=none;align=center;verticalAlign=middle;whiteSpace=wrap;rounded=0;" vertex="1" parent="WIyWlLk6GJQsqaUBKTNV-1">
          <mxGeometry x="200" y="240" width="70" height="10" as="geometry" />
        </mxCell>
        <mxCell id="02AQT7MVqX3RJYkTDw0V-59" style="edgeStyle=orthogonalEdgeStyle;rounded=0;orthogonalLoop=1;jettySize=auto;html=1;entryX=1;entryY=0;entryDx=0;entryDy=0;endArrow=none;endFill=0;" edge="1" parent="WIyWlLk6GJQsqaUBKTNV-1" source="02AQT7MVqX3RJYkTDw0V-57">
          <mxGeometry relative="1" as="geometry">
            <mxPoint x="417.5" y="322.5" as="targetPoint" />
            <Array as="points">
              <mxPoint x="418" y="310" />
              <mxPoint x="418" y="310" />
            </Array>
          </mxGeometry>
        </mxCell>
        <mxCell id="02AQT7MVqX3RJYkTDw0V-57" value="" style="ellipse;whiteSpace=wrap;html=1;aspect=fixed;strokeColor=#0D0D0D;gradientColor=none;fillColor=#141414;" vertex="1" parent="WIyWlLk6GJQsqaUBKTNV-1">
          <mxGeometry x="420" y="280" width="10" height="10" as="geometry" />
        </mxCell>
        <mxCell id="02AQT7MVqX3RJYkTDw0V-58" value="&lt;span style=&quot;font-size: 8px;&quot;&gt;Data aplicaÃ§Ã£o&lt;/span&gt;" style="text;html=1;strokeColor=none;fillColor=none;align=center;verticalAlign=middle;whiteSpace=wrap;rounded=0;" vertex="1" parent="WIyWlLk6GJQsqaUBKTNV-1">
          <mxGeometry x="430" y="280" width="60" height="10" as="geometry" />
        </mxCell>
        <mxCell id="02AQT7MVqX3RJYkTDw0V-62" style="edgeStyle=orthogonalEdgeStyle;rounded=0;orthogonalLoop=1;jettySize=auto;html=1;entryX=0.5;entryY=0;entryDx=0;entryDy=0;endArrow=none;endFill=0;" edge="1" parent="WIyWlLk6GJQsqaUBKTNV-1" source="02AQT7MVqX3RJYkTDw0V-60">
          <mxGeometry relative="1" as="geometry">
            <mxPoint x="395" y="305" as="targetPoint" />
          </mxGeometry>
        </mxCell>
        <mxCell id="02AQT7MVqX3RJYkTDw0V-60" value="" style="ellipse;whiteSpace=wrap;html=1;aspect=fixed;" vertex="1" parent="WIyWlLk6GJQsqaUBKTNV-1">
          <mxGeometry x="390" y="260" width="10" height="10" as="geometry" />
        </mxCell>
        <mxCell id="02AQT7MVqX3RJYkTDw0V-61" value="&lt;span style=&quot;font-size: 8px;&quot;&gt;DescriÃ§Ã£o&lt;/span&gt;" style="text;html=1;strokeColor=none;fillColor=none;align=center;verticalAlign=middle;whiteSpace=wrap;rounded=0;" vertex="1" parent="WIyWlLk6GJQsqaUBKTNV-1">
          <mxGeometry x="405" y="260" width="40" height="10" as="geometry" />
        </mxCell>
        <mxCell id="02AQT7MVqX3RJYkTDw0V-65" style="edgeStyle=orthogonalEdgeStyle;rounded=0;orthogonalLoop=1;jettySize=auto;html=1;endArrow=none;endFill=0;entryX=0;entryY=0;entryDx=0;entryDy=0;" edge="1" parent="WIyWlLk6GJQsqaUBKTNV-1" source="02AQT7MVqX3RJYkTDw0V-63" target="02AQT7MVqX3RJYkTDw0V-128">
          <mxGeometry relative="1" as="geometry">
            <mxPoint x="372.5" y="322.5" as="targetPoint" />
            <Array as="points">
              <mxPoint x="368" y="278" />
              <mxPoint x="368" y="278" />
            </Array>
          </mxGeometry>
        </mxCell>
        <mxCell id="02AQT7MVqX3RJYkTDw0V-63" value="" style="ellipse;whiteSpace=wrap;html=1;aspect=fixed;strokeColor=#0D0D0D;fillColor=#0D0D0D;" vertex="1" parent="WIyWlLk6GJQsqaUBKTNV-1">
          <mxGeometry x="372.5" y="240" width="10" height="10" as="geometry" />
        </mxCell>
        <mxCell id="02AQT7MVqX3RJYkTDw0V-64" value="&lt;span style=&quot;font-size: 8px;&quot;&gt;Lote&lt;/span&gt;" style="text;html=1;strokeColor=none;fillColor=none;align=center;verticalAlign=middle;whiteSpace=wrap;rounded=0;" vertex="1" parent="WIyWlLk6GJQsqaUBKTNV-1">
          <mxGeometry x="382.5" y="240" width="22.5" height="10" as="geometry" />
        </mxCell>
        <mxCell id="02AQT7MVqX3RJYkTDw0V-66" style="edgeStyle=orthogonalEdgeStyle;rounded=0;orthogonalLoop=1;jettySize=auto;html=1;exitX=0.5;exitY=0;exitDx=0;exitDy=0;entryX=0;entryY=0.5;entryDx=0;entryDy=0;endArrow=none;endFill=0;" edge="1" parent="WIyWlLk6GJQsqaUBKTNV-1" source="02AQT7MVqX3RJYkTDw0V-67" target="02AQT7MVqX3RJYkTDw0V-70">
          <mxGeometry relative="1" as="geometry">
            <Array as="points">
              <mxPoint x="425" y="440" />
            </Array>
          </mxGeometry>
        </mxCell>
        <mxCell id="02AQT7MVqX3RJYkTDw0V-67" value="" style="ellipse;whiteSpace=wrap;html=1;aspect=fixed;strokeColor=default;fillColor=#FFFFFF;" vertex="1" parent="WIyWlLk6GJQsqaUBKTNV-1">
          <mxGeometry x="420" y="395" width="10" height="10" as="geometry" />
        </mxCell>
        <mxCell id="02AQT7MVqX3RJYkTDw0V-68" style="edgeStyle=orthogonalEdgeStyle;rounded=0;orthogonalLoop=1;jettySize=auto;html=1;endArrow=none;endFill=0;" edge="1" parent="WIyWlLk6GJQsqaUBKTNV-1" source="02AQT7MVqX3RJYkTDw0V-69">
          <mxGeometry relative="1" as="geometry">
            <Array as="points">
              <mxPoint x="425" y="420" />
            </Array>
            <mxPoint x="425" y="405" as="targetPoint" />
          </mxGeometry>
        </mxCell>
        <mxCell id="02AQT7MVqX3RJYkTDw0V-69" value="" style="ellipse;whiteSpace=wrap;html=1;aspect=fixed;" vertex="1" parent="WIyWlLk6GJQsqaUBKTNV-1">
          <mxGeometry x="440" y="415" width="10" height="10" as="geometry" />
        </mxCell>
        <mxCell id="02AQT7MVqX3RJYkTDw0V-70" value="" style="ellipse;whiteSpace=wrap;html=1;aspect=fixed;" vertex="1" parent="WIyWlLk6GJQsqaUBKTNV-1">
          <mxGeometry x="440" y="435" width="10" height="10" as="geometry" />
        </mxCell>
        <mxCell id="02AQT7MVqX3RJYkTDw0V-71" value="&lt;font style=&quot;font-size: 8px;&quot;&gt;Grupo atendimento&lt;/font&gt;" style="text;html=1;strokeColor=none;fillColor=none;align=center;verticalAlign=middle;whiteSpace=wrap;rounded=0;" vertex="1" parent="WIyWlLk6GJQsqaUBKTNV-1">
          <mxGeometry x="430" y="395" width="80" height="10" as="geometry" />
        </mxCell>
        <mxCell id="02AQT7MVqX3RJYkTDw0V-72" value="&lt;font style=&quot;font-size: 8px;&quot;&gt;Nome&lt;/font&gt;" style="text;html=1;strokeColor=none;fillColor=none;align=center;verticalAlign=middle;whiteSpace=wrap;rounded=0;" vertex="1" parent="WIyWlLk6GJQsqaUBKTNV-1">
          <mxGeometry x="445" y="435" width="40" height="10" as="geometry" />
        </mxCell>
        <mxCell id="02AQT7MVqX3RJYkTDw0V-73" value="&lt;span style=&quot;font-size: 8px;&quot;&gt;CÃ³digo&lt;/span&gt;" style="text;html=1;strokeColor=none;fillColor=none;align=center;verticalAlign=middle;whiteSpace=wrap;rounded=0;" vertex="1" parent="WIyWlLk6GJQsqaUBKTNV-1">
          <mxGeometry x="450" y="415" width="30" height="10" as="geometry" />
        </mxCell>
        <mxCell id="02AQT7MVqX3RJYkTDw0V-74" style="edgeStyle=orthogonalEdgeStyle;rounded=0;orthogonalLoop=1;jettySize=auto;html=1;entryX=0.5;entryY=0;entryDx=0;entryDy=0;endArrow=none;endFill=0;exitX=0.65;exitY=1.001;exitDx=0;exitDy=0;exitPerimeter=0;" edge="1" parent="WIyWlLk6GJQsqaUBKTNV-1" source="02AQT7MVqX3RJYkTDw0V-127" target="02AQT7MVqX3RJYkTDw0V-67">
          <mxGeometry relative="1" as="geometry">
            <mxPoint x="395" y="375" as="sourcePoint" />
            <Array as="points">
              <mxPoint x="410" y="390" />
            </Array>
          </mxGeometry>
        </mxCell>
        <mxCell id="02AQT7MVqX3RJYkTDw0V-75" style="edgeStyle=orthogonalEdgeStyle;rounded=0;orthogonalLoop=1;jettySize=auto;html=1;exitX=0.5;exitY=0;exitDx=0;exitDy=0;entryX=0;entryY=0.5;entryDx=0;entryDy=0;endArrow=none;endFill=0;" edge="1" parent="WIyWlLk6GJQsqaUBKTNV-1" source="02AQT7MVqX3RJYkTDw0V-76" target="02AQT7MVqX3RJYkTDw0V-79">
          <mxGeometry relative="1" as="geometry">
            <Array as="points">
              <mxPoint x="565" y="225" />
            </Array>
          </mxGeometry>
        </mxCell>
        <mxCell id="02AQT7MVqX3RJYkTDw0V-76" value="" style="ellipse;whiteSpace=wrap;html=1;aspect=fixed;" vertex="1" parent="WIyWlLk6GJQsqaUBKTNV-1">
          <mxGeometry x="560" y="240" width="10" height="10" as="geometry" />
        </mxCell>
        <mxCell id="02AQT7MVqX3RJYkTDw0V-77" style="edgeStyle=orthogonalEdgeStyle;rounded=0;orthogonalLoop=1;jettySize=auto;html=1;entryX=0.5;entryY=0;entryDx=0;entryDy=0;endArrow=none;endFill=0;" edge="1" parent="WIyWlLk6GJQsqaUBKTNV-1" source="02AQT7MVqX3RJYkTDw0V-78" target="02AQT7MVqX3RJYkTDw0V-76">
          <mxGeometry relative="1" as="geometry">
            <Array as="points">
              <mxPoint x="565" y="205" />
            </Array>
          </mxGeometry>
        </mxCell>
        <mxCell id="02AQT7MVqX3RJYkTDw0V-78" value="" style="ellipse;whiteSpace=wrap;html=1;aspect=fixed;" vertex="1" parent="WIyWlLk6GJQsqaUBKTNV-1">
          <mxGeometry x="580" y="200" width="10" height="10" as="geometry" />
        </mxCell>
        <mxCell id="02AQT7MVqX3RJYkTDw0V-79" value="" style="ellipse;whiteSpace=wrap;html=1;aspect=fixed;" vertex="1" parent="WIyWlLk6GJQsqaUBKTNV-1">
          <mxGeometry x="580" y="220" width="10" height="10" as="geometry" />
        </mxCell>
        <mxCell id="02AQT7MVqX3RJYkTDw0V-80" value="&lt;font style=&quot;font-size: 8px;&quot;&gt;Categoria&lt;/font&gt;" style="text;html=1;strokeColor=none;fillColor=none;align=center;verticalAlign=middle;whiteSpace=wrap;rounded=0;" vertex="1" parent="WIyWlLk6GJQsqaUBKTNV-1">
          <mxGeometry x="570" y="240" width="40" height="10" as="geometry" />
        </mxCell>
        <mxCell id="02AQT7MVqX3RJYkTDw0V-81" value="&lt;font style=&quot;font-size: 8px;&quot;&gt;Nome&lt;/font&gt;" style="text;html=1;strokeColor=none;fillColor=none;align=center;verticalAlign=middle;whiteSpace=wrap;rounded=0;" vertex="1" parent="WIyWlLk6GJQsqaUBKTNV-1">
          <mxGeometry x="590" y="220" width="30" height="10" as="geometry" />
        </mxCell>
        <mxCell id="02AQT7MVqX3RJYkTDw0V-82" value="&lt;span style=&quot;font-size: 8px;&quot;&gt;CÃ³digo&lt;/span&gt;" style="text;html=1;strokeColor=none;fillColor=none;align=center;verticalAlign=middle;whiteSpace=wrap;rounded=0;" vertex="1" parent="WIyWlLk6GJQsqaUBKTNV-1">
          <mxGeometry x="585" y="200" width="40" height="10" as="geometry" />
        </mxCell>
        <mxCell id="02AQT7MVqX3RJYkTDw0V-83" style="edgeStyle=orthogonalEdgeStyle;rounded=0;orthogonalLoop=1;jettySize=auto;html=1;entryX=0.11;entryY=0.012;entryDx=0;entryDy=0;entryPerimeter=0;endArrow=none;endFill=0;" edge="1" parent="WIyWlLk6GJQsqaUBKTNV-1" source="02AQT7MVqX3RJYkTDw0V-76" target="02AQT7MVqX3RJYkTDw0V-0">
          <mxGeometry relative="1" as="geometry" />
        </mxCell>
        <mxCell id="02AQT7MVqX3RJYkTDw0V-84" style="edgeStyle=orthogonalEdgeStyle;rounded=0;orthogonalLoop=1;jettySize=auto;html=1;exitX=0.5;exitY=0;exitDx=0;exitDy=0;entryX=0;entryY=0.5;entryDx=0;entryDy=0;endArrow=none;endFill=0;" edge="1" parent="WIyWlLk6GJQsqaUBKTNV-1" source="02AQT7MVqX3RJYkTDw0V-85" target="02AQT7MVqX3RJYkTDw0V-88">
          <mxGeometry relative="1" as="geometry">
            <Array as="points">
              <mxPoint x="625" y="225" />
            </Array>
          </mxGeometry>
        </mxCell>
        <mxCell id="02AQT7MVqX3RJYkTDw0V-85" value="" style="ellipse;whiteSpace=wrap;html=1;aspect=fixed;" vertex="1" parent="WIyWlLk6GJQsqaUBKTNV-1">
          <mxGeometry x="620" y="240" width="10" height="10" as="geometry" />
        </mxCell>
        <mxCell id="02AQT7MVqX3RJYkTDw0V-86" style="edgeStyle=orthogonalEdgeStyle;rounded=0;orthogonalLoop=1;jettySize=auto;html=1;entryX=0.5;entryY=0;entryDx=0;entryDy=0;endArrow=none;endFill=0;" edge="1" parent="WIyWlLk6GJQsqaUBKTNV-1" source="02AQT7MVqX3RJYkTDw0V-87" target="02AQT7MVqX3RJYkTDw0V-85">
          <mxGeometry relative="1" as="geometry">
            <Array as="points">
              <mxPoint x="625" y="205" />
            </Array>
          </mxGeometry>
        </mxCell>
        <mxCell id="02AQT7MVqX3RJYkTDw0V-87" value="" style="ellipse;whiteSpace=wrap;html=1;aspect=fixed;" vertex="1" parent="WIyWlLk6GJQsqaUBKTNV-1">
          <mxGeometry x="640" y="200" width="10" height="10" as="geometry" />
        </mxCell>
        <mxCell id="02AQT7MVqX3RJYkTDw0V-88" value="" style="ellipse;whiteSpace=wrap;html=1;aspect=fixed;" vertex="1" parent="WIyWlLk6GJQsqaUBKTNV-1">
          <mxGeometry x="640" y="220" width="10" height="10" as="geometry" />
        </mxCell>
        <mxCell id="02AQT7MVqX3RJYkTDw0V-89" value="&lt;font style=&quot;font-size: 8px;&quot;&gt;Fabricante&lt;/font&gt;" style="text;html=1;strokeColor=none;fillColor=none;align=center;verticalAlign=middle;whiteSpace=wrap;rounded=0;" vertex="1" parent="WIyWlLk6GJQsqaUBKTNV-1">
          <mxGeometry x="630" y="240" width="40" height="10" as="geometry" />
        </mxCell>
        <mxCell id="02AQT7MVqX3RJYkTDw0V-90" value="&lt;font style=&quot;font-size: 8px;&quot;&gt;Nome&lt;/font&gt;" style="text;html=1;strokeColor=none;fillColor=none;align=center;verticalAlign=middle;whiteSpace=wrap;rounded=0;" vertex="1" parent="WIyWlLk6GJQsqaUBKTNV-1">
          <mxGeometry x="650" y="220" width="30" height="10" as="geometry" />
        </mxCell>
        <mxCell id="02AQT7MVqX3RJYkTDw0V-91" value="&lt;span style=&quot;font-size: 8px;&quot;&gt;CNPJ&lt;/span&gt;" style="text;html=1;strokeColor=none;fillColor=none;align=center;verticalAlign=middle;whiteSpace=wrap;rounded=0;" vertex="1" parent="WIyWlLk6GJQsqaUBKTNV-1">
          <mxGeometry x="645" y="200" width="35" height="10" as="geometry" />
        </mxCell>
        <mxCell id="02AQT7MVqX3RJYkTDw0V-92" style="edgeStyle=orthogonalEdgeStyle;rounded=0;orthogonalLoop=1;jettySize=auto;html=1;entryX=0.537;entryY=-0.002;entryDx=0;entryDy=0;entryPerimeter=0;endArrow=none;endFill=0;" edge="1" parent="WIyWlLk6GJQsqaUBKTNV-1" source="02AQT7MVqX3RJYkTDw0V-85" target="02AQT7MVqX3RJYkTDw0V-0">
          <mxGeometry relative="1" as="geometry" />
        </mxCell>
        <mxCell id="02AQT7MVqX3RJYkTDw0V-93" value="" style="ellipse;whiteSpace=wrap;html=1;aspect=fixed;" vertex="1" parent="WIyWlLk6GJQsqaUBKTNV-1">
          <mxGeometry x="637.5" y="260" width="10" height="10" as="geometry" />
        </mxCell>
        <mxCell id="02AQT7MVqX3RJYkTDw0V-94" value="&lt;font style=&quot;font-size: 8px;&quot;&gt;Nome&lt;/font&gt;" style="text;html=1;strokeColor=none;fillColor=none;align=center;verticalAlign=middle;whiteSpace=wrap;rounded=0;" vertex="1" parent="WIyWlLk6GJQsqaUBKTNV-1">
          <mxGeometry x="648.75" y="260" width="27.5" height="10" as="geometry" />
        </mxCell>
        <mxCell id="02AQT7MVqX3RJYkTDw0V-97" style="edgeStyle=orthogonalEdgeStyle;rounded=0;orthogonalLoop=1;jettySize=auto;html=1;entryX=0.653;entryY=0.005;entryDx=0;entryDy=0;entryPerimeter=0;endArrow=none;endFill=0;" edge="1" parent="WIyWlLk6GJQsqaUBKTNV-1" source="02AQT7MVqX3RJYkTDw0V-93" target="02AQT7MVqX3RJYkTDw0V-0">
          <mxGeometry relative="1" as="geometry">
            <Array as="points">
              <mxPoint x="643" y="280" />
              <mxPoint x="641" y="280" />
            </Array>
          </mxGeometry>
        </mxCell>
        <mxCell id="02AQT7MVqX3RJYkTDw0V-98" value="" style="ellipse;whiteSpace=wrap;html=1;aspect=fixed;fillColor=#0D0D0D;" vertex="1" parent="WIyWlLk6GJQsqaUBKTNV-1">
          <mxGeometry x="570" y="260" width="10" height="10" as="geometry" />
        </mxCell>
        <mxCell id="02AQT7MVqX3RJYkTDw0V-99" value="&lt;font style=&quot;font-size: 8px;&quot;&gt;CÃ³digo&lt;/font&gt;" style="text;html=1;strokeColor=none;fillColor=none;align=center;verticalAlign=middle;whiteSpace=wrap;rounded=0;" vertex="1" parent="WIyWlLk6GJQsqaUBKTNV-1">
          <mxGeometry x="580" y="260" width="40" height="10" as="geometry" />
        </mxCell>
        <mxCell id="02AQT7MVqX3RJYkTDw0V-100" style="edgeStyle=orthogonalEdgeStyle;rounded=0;orthogonalLoop=1;jettySize=auto;html=1;entryX=0.175;entryY=-0.008;entryDx=0;entryDy=0;entryPerimeter=0;endArrow=none;endFill=0;" edge="1" parent="WIyWlLk6GJQsqaUBKTNV-1" source="02AQT7MVqX3RJYkTDw0V-98" target="02AQT7MVqX3RJYkTDw0V-0">
          <mxGeometry relative="1" as="geometry">
            <Array as="points">
              <mxPoint x="575" y="280" />
              <mxPoint x="574" y="280" />
            </Array>
          </mxGeometry>
        </mxCell>
        <mxCell id="02AQT7MVqX3RJYkTDw0V-114" style="edgeStyle=orthogonalEdgeStyle;rounded=0;orthogonalLoop=1;jettySize=auto;html=1;entryX=0.5;entryY=0;entryDx=0;entryDy=0;endArrow=none;endFill=0;" edge="1" parent="WIyWlLk6GJQsqaUBKTNV-1" source="02AQT7MVqX3RJYkTDw0V-101" target="02AQT7MVqX3RJYkTDw0V-110">
          <mxGeometry relative="1" as="geometry">
            <Array as="points">
              <mxPoint x="180" y="402.5" />
            </Array>
          </mxGeometry>
        </mxCell>
        <mxCell id="02AQT7MVqX3RJYkTDw0V-101" value="" style="ellipse;whiteSpace=wrap;html=1;aspect=fixed;" vertex="1" parent="WIyWlLk6GJQsqaUBKTNV-1">
          <mxGeometry x="195" y="397.5" width="10" height="10" as="geometry" />
        </mxCell>
        <mxCell id="02AQT7MVqX3RJYkTDw0V-102" style="edgeStyle=orthogonalEdgeStyle;rounded=0;orthogonalLoop=1;jettySize=auto;html=1;endArrow=none;endFill=0;" edge="1" parent="WIyWlLk6GJQsqaUBKTNV-1" source="02AQT7MVqX3RJYkTDw0V-103">
          <mxGeometry relative="1" as="geometry">
            <mxPoint x="200" y="397.5" as="targetPoint" />
            <Array as="points">
              <mxPoint x="200" y="382.5" />
            </Array>
          </mxGeometry>
        </mxCell>
        <mxCell id="02AQT7MVqX3RJYkTDw0V-103" value="" style="ellipse;whiteSpace=wrap;html=1;aspect=fixed;" vertex="1" parent="WIyWlLk6GJQsqaUBKTNV-1">
          <mxGeometry x="220" y="377.5" width="10" height="10" as="geometry" />
        </mxCell>
        <mxCell id="02AQT7MVqX3RJYkTDw0V-104" style="edgeStyle=orthogonalEdgeStyle;rounded=0;orthogonalLoop=1;jettySize=auto;html=1;entryX=0.5;entryY=0;entryDx=0;entryDy=0;endArrow=none;endFill=0;" edge="1" parent="WIyWlLk6GJQsqaUBKTNV-1" source="02AQT7MVqX3RJYkTDw0V-105" target="02AQT7MVqX3RJYkTDw0V-101">
          <mxGeometry relative="1" as="geometry">
            <mxPoint x="195.01999999999998" y="397.5" as="targetPoint" />
            <Array as="points">
              <mxPoint x="200" y="352.5" />
            </Array>
          </mxGeometry>
        </mxCell>
        <mxCell id="02AQT7MVqX3RJYkTDw0V-105" value="" style="ellipse;whiteSpace=wrap;html=1;aspect=fixed;" vertex="1" parent="WIyWlLk6GJQsqaUBKTNV-1">
          <mxGeometry x="220" y="347.5" width="10" height="10" as="geometry" />
        </mxCell>
        <mxCell id="02AQT7MVqX3RJYkTDw0V-106" value="&lt;span style=&quot;font-size: 8px;&quot;&gt;CÃ³digo&lt;/span&gt;" style="text;html=1;strokeColor=none;fillColor=none;align=center;verticalAlign=middle;whiteSpace=wrap;rounded=0;" vertex="1" parent="WIyWlLk6GJQsqaUBKTNV-1">
          <mxGeometry x="225" y="347.5" width="45" height="10" as="geometry" />
        </mxCell>
        <mxCell id="02AQT7MVqX3RJYkTDw0V-107" value="&lt;span style=&quot;font-size: 8px;&quot;&gt;Nome&lt;/span&gt;" style="text;html=1;strokeColor=none;fillColor=none;align=center;verticalAlign=middle;whiteSpace=wrap;rounded=0;" vertex="1" parent="WIyWlLk6GJQsqaUBKTNV-1">
          <mxGeometry x="230" y="377.5" width="35" height="10" as="geometry" />
        </mxCell>
        <mxCell id="02AQT7MVqX3RJYkTDw0V-108" value="&lt;span style=&quot;font-size: 8px;&quot;&gt;MunicÃ­pio&lt;/span&gt;" style="text;html=1;strokeColor=none;fillColor=none;align=center;verticalAlign=middle;whiteSpace=wrap;rounded=0;" vertex="1" parent="WIyWlLk6GJQsqaUBKTNV-1">
          <mxGeometry x="205" y="397.5" width="40" height="10" as="geometry" />
        </mxCell>
        <mxCell id="02AQT7MVqX3RJYkTDw0V-109" style="edgeStyle=orthogonalEdgeStyle;rounded=0;orthogonalLoop=1;jettySize=auto;html=1;exitX=0.5;exitY=0;exitDx=0;exitDy=0;entryX=0;entryY=0.5;entryDx=0;entryDy=0;endArrow=none;endFill=0;" edge="1" parent="WIyWlLk6GJQsqaUBKTNV-1" source="02AQT7MVqX3RJYkTDw0V-110" target="02AQT7MVqX3RJYkTDw0V-111">
          <mxGeometry relative="1" as="geometry">
            <Array as="points">
              <mxPoint x="180" y="417.5" />
            </Array>
          </mxGeometry>
        </mxCell>
        <mxCell id="02AQT7MVqX3RJYkTDw0V-110" value="" style="ellipse;whiteSpace=wrap;html=1;aspect=fixed;" vertex="1" parent="WIyWlLk6GJQsqaUBKTNV-1">
          <mxGeometry x="175" y="432.5" width="10" height="10" as="geometry" />
        </mxCell>
        <mxCell id="02AQT7MVqX3RJYkTDw0V-111" value="" style="ellipse;whiteSpace=wrap;html=1;aspect=fixed;" vertex="1" parent="WIyWlLk6GJQsqaUBKTNV-1">
          <mxGeometry x="195" y="412.5" width="10" height="10" as="geometry" />
        </mxCell>
        <mxCell id="02AQT7MVqX3RJYkTDw0V-112" value="&lt;font style=&quot;font-size: 8px;&quot;&gt;EndereÃ§o&lt;/font&gt;" style="text;html=1;strokeColor=none;fillColor=none;align=center;verticalAlign=middle;whiteSpace=wrap;rounded=0;" vertex="1" parent="WIyWlLk6GJQsqaUBKTNV-1">
          <mxGeometry x="185" y="432.5" width="40" height="10" as="geometry" />
        </mxCell>
        <mxCell id="02AQT7MVqX3RJYkTDw0V-113" value="&lt;font style=&quot;font-size: 8px;&quot;&gt;UF&lt;/font&gt;" style="text;html=1;strokeColor=none;fillColor=none;align=center;verticalAlign=middle;whiteSpace=wrap;rounded=0;" vertex="1" parent="WIyWlLk6GJQsqaUBKTNV-1">
          <mxGeometry x="195" y="412.5" width="40" height="10" as="geometry" />
        </mxCell>
        <mxCell id="02AQT7MVqX3RJYkTDw0V-115" style="edgeStyle=orthogonalEdgeStyle;rounded=0;orthogonalLoop=1;jettySize=auto;html=1;entryX=0.036;entryY=0;entryDx=0;entryDy=0;entryPerimeter=0;endArrow=none;endFill=0;" edge="1" parent="WIyWlLk6GJQsqaUBKTNV-1" source="02AQT7MVqX3RJYkTDw0V-110" target="02AQT7MVqX3RJYkTDw0V-1">
          <mxGeometry relative="1" as="geometry" />
        </mxCell>
        <mxCell id="02AQT7MVqX3RJYkTDw0V-117" value="" style="ellipse;whiteSpace=wrap;html=1;aspect=fixed;" vertex="1" parent="WIyWlLk6GJQsqaUBKTNV-1">
          <mxGeometry x="185" y="452.5" width="10" height="10" as="geometry" />
        </mxCell>
        <mxCell id="02AQT7MVqX3RJYkTDw0V-118" value="&lt;font style=&quot;font-size: 8px;&quot;&gt;Nome fantasia&lt;/font&gt;" style="text;html=1;strokeColor=none;fillColor=none;align=center;verticalAlign=middle;whiteSpace=wrap;rounded=0;" vertex="1" parent="WIyWlLk6GJQsqaUBKTNV-1">
          <mxGeometry x="195" y="452.5" width="55" height="10" as="geometry" />
        </mxCell>
        <mxCell id="02AQT7MVqX3RJYkTDw0V-119" value="" style="ellipse;whiteSpace=wrap;html=1;aspect=fixed;" vertex="1" parent="WIyWlLk6GJQsqaUBKTNV-1">
          <mxGeometry x="250" y="432.5" width="10" height="10" as="geometry" />
        </mxCell>
        <mxCell id="02AQT7MVqX3RJYkTDw0V-120" value="&lt;span style=&quot;font-size: 8px;&quot;&gt;Nome/RazÃ£o social&lt;/span&gt;" style="text;html=1;strokeColor=none;fillColor=none;align=center;verticalAlign=middle;whiteSpace=wrap;rounded=0;" vertex="1" parent="WIyWlLk6GJQsqaUBKTNV-1">
          <mxGeometry x="260" y="432.5" width="75" height="10" as="geometry" />
        </mxCell>
        <mxCell id="02AQT7MVqX3RJYkTDw0V-121" style="edgeStyle=orthogonalEdgeStyle;rounded=0;orthogonalLoop=1;jettySize=auto;html=1;entryX=0.107;entryY=0;entryDx=0;entryDy=0;entryPerimeter=0;endArrow=none;endFill=0;" edge="1" parent="WIyWlLk6GJQsqaUBKTNV-1">
          <mxGeometry relative="1" as="geometry">
            <mxPoint x="189.93999999999994" y="462.5" as="sourcePoint" />
            <mxPoint x="189.92000000000007" y="472.5" as="targetPoint" />
          </mxGeometry>
        </mxCell>
        <mxCell id="02AQT7MVqX3RJYkTDw0V-123" style="edgeStyle=orthogonalEdgeStyle;rounded=0;orthogonalLoop=1;jettySize=auto;html=1;entryX=0.572;entryY=-0.008;entryDx=0;entryDy=0;entryPerimeter=0;endArrow=none;endFill=0;" edge="1" parent="WIyWlLk6GJQsqaUBKTNV-1" source="02AQT7MVqX3RJYkTDw0V-119" target="02AQT7MVqX3RJYkTDw0V-1">
          <mxGeometry relative="1" as="geometry" />
        </mxCell>
        <mxCell id="02AQT7MVqX3RJYkTDw0V-124" value="" style="ellipse;whiteSpace=wrap;html=1;aspect=fixed;fillColor=#0D0D0D;" vertex="1" parent="WIyWlLk6GJQsqaUBKTNV-1">
          <mxGeometry x="265" y="452.5" width="10" height="10" as="geometry" />
        </mxCell>
        <mxCell id="02AQT7MVqX3RJYkTDw0V-125" value="&lt;span style=&quot;font-size: 8px;&quot;&gt;CÃ³digo CNES&lt;/span&gt;" style="text;html=1;strokeColor=none;fillColor=none;align=center;verticalAlign=middle;whiteSpace=wrap;rounded=0;" vertex="1" parent="WIyWlLk6GJQsqaUBKTNV-1">
          <mxGeometry x="275" y="452.5" width="60" height="10" as="geometry" />
        </mxCell>
        <mxCell id="02AQT7MVqX3RJYkTDw0V-126" style="edgeStyle=orthogonalEdgeStyle;rounded=0;orthogonalLoop=1;jettySize=auto;html=1;entryX=0.681;entryY=-0.005;entryDx=0;entryDy=0;entryPerimeter=0;endArrow=none;endFill=0;" edge="1" parent="WIyWlLk6GJQsqaUBKTNV-1" source="02AQT7MVqX3RJYkTDw0V-124" target="02AQT7MVqX3RJYkTDw0V-1">
          <mxGeometry relative="1" as="geometry">
            <Array as="points">
              <mxPoint x="270" y="472.5" />
              <mxPoint x="270" y="472.5" />
            </Array>
          </mxGeometry>
        </mxCell>
        <mxCell id="02AQT7MVqX3RJYkTDw0V-127" value="" style="rounded=0;whiteSpace=wrap;html=1;" vertex="1" parent="WIyWlLk6GJQsqaUBKTNV-1">
          <mxGeometry x="325" y="300" width="130" height="70" as="geometry" />
        </mxCell>
        <mxCell id="02AQT7MVqX3RJYkTDw0V-128" value="Recebe" style="rhombus;whiteSpace=wrap;html=1;" vertex="1" parent="WIyWlLk6GJQsqaUBKTNV-1">
          <mxGeometry x="345" y="305" width="90" height="60" as="geometry" />
        </mxCell>
        <mxCell id="02AQT7MVqX3RJYkTDw0V-130" value="Dose" style="text;html=1;strokeColor=none;fillColor=none;align=center;verticalAlign=middle;whiteSpace=wrap;rounded=0;" vertex="1" parent="WIyWlLk6GJQsqaUBKTNV-1">
          <mxGeometry x="312.5" y="295" width="60" height="30" as="geometry" />
        </mxCell>
        <mxCell id="02AQT7MVqX3RJYkTDw0V-132" value="&lt;font style=&quot;font-size: 8px;&quot;&gt;(1,1)&lt;/font&gt;" style="text;html=1;strokeColor=none;fillColor=none;align=center;verticalAlign=middle;whiteSpace=wrap;rounded=0;" vertex="1" parent="WIyWlLk6GJQsqaUBKTNV-1">
          <mxGeometry x="230" y="265" width="25" height="30" as="geometry" />
        </mxCell>
        <mxCell id="02AQT7MVqX3RJYkTDw0V-133" value="&lt;font style=&quot;font-size: 8px;&quot;&gt;(1,n)&lt;/font&gt;" style="text;html=1;strokeColor=none;fillColor=none;align=center;verticalAlign=middle;whiteSpace=wrap;rounded=0;" vertex="1" parent="WIyWlLk6GJQsqaUBKTNV-1">
          <mxGeometry x="300" y="320" width="25" height="20" as="geometry" />
        </mxCell>
        <mxCell id="02AQT7MVqX3RJYkTDw0V-134" value="&lt;font style=&quot;font-size: 8px;&quot;&gt;(1,1)&lt;/font&gt;" style="text;html=1;strokeColor=none;fillColor=none;align=center;verticalAlign=middle;whiteSpace=wrap;rounded=0;" vertex="1" parent="WIyWlLk6GJQsqaUBKTNV-1">
          <mxGeometry x="525" y="290" width="25" height="20" as="geometry" />
        </mxCell>
        <mxCell id="02AQT7MVqX3RJYkTDw0V-135" value="&lt;font style=&quot;font-size: 8px;&quot;&gt;(1,n)&lt;/font&gt;" style="text;html=1;strokeColor=none;fillColor=none;align=center;verticalAlign=middle;whiteSpace=wrap;rounded=0;" vertex="1" parent="WIyWlLk6GJQsqaUBKTNV-1">
          <mxGeometry x="452.5" y="320" width="25" height="20" as="geometry" />
        </mxCell>
        <mxCell id="02AQT7MVqX3RJYkTDw0V-136" value="&lt;font style=&quot;font-size: 8px;&quot;&gt;(1,1)&lt;/font&gt;" style="text;html=1;strokeColor=none;fillColor=none;align=center;verticalAlign=middle;whiteSpace=wrap;rounded=0;" vertex="1" parent="WIyWlLk6GJQsqaUBKTNV-1">
          <mxGeometry x="315" y="477.5" width="25" height="25" as="geometry" />
        </mxCell>
        <mxCell id="02AQT7MVqX3RJYkTDw0V-137" value="&lt;font style=&quot;font-size: 8px;&quot;&gt;(1,n)&lt;/font&gt;" style="text;html=1;strokeColor=none;fillColor=none;align=center;verticalAlign=middle;whiteSpace=wrap;rounded=0;" vertex="1" parent="WIyWlLk6GJQsqaUBKTNV-1">
          <mxGeometry x="365" y="370" width="25" height="20" as="geometry" />
        </mxCell>
      </root>
    </mxGraphModel>
  </diagram>
</mxfile>
